<?xml version="1.0" encoding="UTF-8"?>
<svg width="255px" height="136px" viewBox="0 0 255 136" version="1.1" xmlns="http://www.w3.org/2000/svg" xmlns:xlink="http://www.w3.org/1999/xlink">
    <!-- Generator: Sketch 52.5 (67469) - http://www.bohemiancoding.com/sketch -->
    <title>TII - White Logo Copy 2</title>
    <desc>Created with Sketch.</desc>
    <defs>
        <polygon id="path-1" points="0 136 254.580704 136 254.580704 0.524991342 0 0.524991342"></polygon>
    </defs>
    <g id="Page-1" stroke="none" stroke-width="1" fill="none" fill-rule="evenodd">
        <g id="HD-TV_1920x1080" transform="translate(-69.000000, -63.000000)">
            <g id="TII---White-Logo" transform="translate(69.000000, 63.000000)">
                <g id="Group-41">
                    <polygon id="Fill-1" fill="#FFFFFF" points="0 43.959596 0 56.6018483 10.2187268 56.6018483 10.2187268 94.7878788 27.2389003 94.7878788 27.2389003 56.6018483 37.4576271 56.6018483 37.4576271 43.959596"></polygon>
                    <polygon id="Fill-2" fill="#FFFFFF" points="43.220339 94.7878788 60.5084746 94.7878788 60.5084746 43.959596 43.220339 43.959596"></polygon>
                    <polygon id="Fill-3" fill="#FFFFFF" points="70.5932203 94.7878788 87.8813559 94.7878788 87.8813559 43.959596 70.5932203 43.959596"></polygon>
                    <polygon id="Fill-4" fill="#FFFFFF" points="130.878158 42.7867448 125.338983 42.7867448 125.338983 41.2121212 138.305085 41.2121212 138.305085 42.7867448 132.765909 42.7867448 132.765909 56.3232323 130.878158 56.3232323"></polygon>
                    <g id="Group-40">
                        <path d="M147.542604,50.5312943 C147.33013,48.4305157 146.057504,46.6406524 143.656112,46.6406524 C141.560151,46.6406524 139.957748,48.2960659 139.701009,50.5312943 L147.542604,50.5312943 Z M143.988102,55.7622329 C145.656903,55.7622329 146.836573,55.1130923 147.825902,54.129928 L148.954666,55.0899838 C147.730731,56.3882649 146.247844,57.260088 143.93941,57.260088 C140.595168,57.260088 137.864,54.8231849 137.864,51.2245512 C137.864,47.8696078 140.336216,45.1890144 143.704804,45.1890144 C147.307998,45.1890144 149.379613,47.915825 149.379613,51.3127839 C149.379613,51.4703423 149.379613,51.6489085 149.355267,51.9178081 L139.701009,51.9178081 C139.957748,54.3526105 141.843449,55.7622329 143.988102,55.7622329 Z" id="Fill-5" fill="#FFFFFF"></path>
                        <path d="M151.33813,51.2688776 L151.33813,51.2247613 C151.33813,47.9601514 154.02282,45.1892244 157.577322,45.1892244 C159.885756,45.1892244 161.324378,46.1051639 162.453143,47.2437859 L161.25134,48.4517336 C160.286357,47.4916778 159.204071,46.7080873 157.555189,46.7080873 C155.082973,46.7080873 153.199486,48.6975247 153.199486,51.1785442 L153.199486,51.2247613 C153.199486,53.7267886 155.129452,55.7162259 157.672492,55.7162259 C159.226204,55.7162259 160.428006,54.9788526 161.392989,53.9956882 L162.5461,55.0229689 C161.324378,56.3212501 159.863624,57.2602981 157.577322,57.2602981 C154.02282,57.2602981 151.33813,54.5082782 151.33813,51.2688776" id="Fill-7" fill="#FFFFFF"></path>
                        <path d="M165.071656,41.3443795 L166.884319,41.3443795 L166.884319,47.4471413 C167.68552,46.1950772 168.958147,45.1888043 171.051895,45.1888043 C173.995536,45.1888043 175.717456,47.0669003 175.717456,49.8168195 L175.717456,56.9909783 L173.902579,56.9909783 L173.902579,50.239076 C173.902579,48.0941811 172.678644,46.7538843 170.536205,46.7538843 C168.43803,46.7538843 166.884319,48.2055223 166.884319,50.3735258 L166.884319,56.9909783 L165.071656,56.9909783 L165.071656,41.3443795 Z" id="Fill-9" fill="#FFFFFF"></path>
                        <path d="M179.109726,45.4341752 L180.922389,45.4341752 L180.922389,47.4467211 C181.725804,46.1946571 182.996218,45.1883841 185.092179,45.1883841 C188.03582,45.1883841 189.755526,47.0664802 189.755526,49.8163993 L189.755526,56.9905582 L187.94065,56.9905582 L187.94065,50.2407566 C187.94065,48.0937609 186.718928,46.7534642 184.574275,46.7534642 C182.4761,46.7534642 180.922389,48.2051022 180.922389,50.3752064 L180.922389,56.9905582 L179.109726,56.9905582 L179.109726,45.4341752 Z" id="Fill-11" fill="#FFFFFF"></path>
                        <path d="M203.228771,51.2688776 L203.228771,51.2247613 C203.228771,48.741641 201.274459,46.7080873 198.707073,46.7080873 C196.071075,46.7080873 194.256199,48.741641 194.256199,51.1785442 L194.256199,51.2247613 C194.256199,53.7057808 196.186165,55.7162259 198.755765,55.7162259 C201.391762,55.7162259 203.228771,53.7057808 203.228771,51.2688776 M192.394844,51.2688776 L192.394844,51.2247613 C192.394844,47.9601514 195.079533,45.1892244 198.755765,45.1892244 C202.405437,45.1892244 205.090126,47.916035 205.090126,51.1785442 L205.090126,51.2247613 C205.090126,54.4872704 202.381091,57.2602981 198.707073,57.2602981 C195.0574,57.2602981 192.394844,54.5313868 192.394844,51.2688776" id="Fill-13" fill="#FFFFFF"></path>
                        <mask id="mask-2" fill="white">
                            <use xlink:href="#path-1"></use>
                        </mask>
                        <g id="Clip-16"></g>
                        <polygon id="Fill-15" fill="#FFFFFF" mask="url(#mask-2)" points="208.062319 56.9918186 209.874982 56.9918186 209.874982 41.3452198 208.062319 41.3452198"></polygon>
                        <path d="M223.699251,51.2688776 L223.699251,51.2247613 C223.699251,48.741641 221.744939,46.7080873 219.177553,46.7080873 C216.541555,46.7080873 214.726678,48.741641 214.726678,51.1785442 L214.726678,51.2247613 C214.726678,53.7057808 216.656645,55.7162259 219.226244,55.7162259 C221.862242,55.7162259 223.699251,53.7057808 223.699251,51.2688776 M212.865323,51.2688776 L212.865323,51.2247613 C212.865323,47.9601514 215.550013,45.1892244 219.226244,45.1892244 C222.875917,45.1892244 225.560606,47.916035 225.560606,51.1785442 L225.560606,51.2247613 C225.560606,54.4872704 222.851571,57.2602981 219.177553,57.2602981 C215.52788,57.2602981 212.865323,54.5313868 212.865323,51.2688776" id="Fill-17" fill="#FFFFFF" mask="url(#mask-2)"></path>
                        <path d="M238.21096,50.6646937 L238.21096,50.6205774 C238.21096,48.2508991 236.044174,46.7089277 233.737953,46.7089277 C231.429519,46.7089277 229.519472,48.2277906 229.519472,50.5974688 L229.519472,50.6436859 C229.519472,52.967147 231.475997,54.5763434 233.737953,54.5763434 C236.044174,54.5763434 238.21096,52.9881548 238.21096,50.6646937 M228.224712,59.0026839 L229.05026,57.6623871 C230.437976,58.622443 231.991688,59.1371337 233.737953,59.1371337 C236.420429,59.1371337 238.164481,57.7275113 238.164481,55.0238093 L238.164481,53.660404 C237.104328,55.0007007 235.619228,56.0973071 233.381618,56.0973071 C230.462322,56.0973071 227.66033,54.0175363 227.66033,50.6878023 L227.66033,50.6436859 C227.66033,47.2677348 230.486668,45.1900648 233.381618,45.1900648 C235.667919,45.1900648 237.150806,46.2614618 238.140135,47.5135259 L238.140135,45.4337551 L239.952799,45.4337551 L239.952799,54.9775921 C239.952799,56.7674555 239.388416,58.1308608 238.399087,59.0699088 C237.316801,60.0971895 235.690052,60.6118803 233.760086,60.6118803 C231.732736,60.6118803 229.851461,60.0740809 228.224712,59.0026839" id="Fill-18" fill="#FFFFFF" mask="url(#mask-2)"></path>
                        <path d="M242.829821,60.0534933 L243.440682,58.690088 C244.031623,58.9799955 244.573873,59.1144453 245.350729,59.1144453 C246.433015,59.1144453 247.116913,58.576646 247.84729,56.9464418 L242.31413,45.4341752 L244.312708,45.4341752 L248.741449,55.0683458 L252.650074,45.4341752 L254.582253,45.4341752 L249.471826,57.3707991 C248.433805,59.7614851 247.258562,60.6333082 245.421553,60.6333082 C244.407878,60.6333082 243.655368,60.4337342 242.829821,60.0534933" id="Fill-19" fill="#FFFFFF" mask="url(#mask-2)"></path>
                        <polygon id="Fill-20" fill="#FFFFFF" mask="url(#mask-2)" points="131.237708 77.3168513 133.099064 77.3168513 133.099064 61.6702525 131.237708 61.6702525"></polygon>
                        <path d="M137.150665,65.7608885 L138.963328,65.7608885 L138.963328,67.7734344 C139.76453,66.5213704 141.037157,65.5150975 143.130904,65.5150975 C146.074546,65.5150975 147.796465,67.3931935 147.796465,70.1410119 L147.796465,77.3172715 L145.979375,77.3172715 L145.979375,70.5674699 C145.979375,68.4204742 144.757654,67.0801775 142.613001,67.0801775 C140.51704,67.0801775 138.963328,68.5318155 138.963328,70.7019198 L138.963328,77.3172715 L137.150665,77.3172715 L137.150665,65.7608885 Z" id="Fill-21" fill="#FFFFFF" mask="url(#mask-2)"></path>
                        <path d="M151.188956,65.7608885 L153.00162,65.7608885 L153.00162,67.7734344 C153.805035,66.5213704 155.075448,65.5150975 157.171409,65.5150975 C160.115051,65.5150975 161.834757,67.3931935 161.834757,70.1410119 L161.834757,77.3172715 L160.01988,77.3172715 L160.01988,70.5674699 C160.01988,68.4204742 158.795945,67.0801775 156.653506,67.0801775 C154.555331,67.0801775 153.00162,68.5318155 153.00162,70.7019198 L153.00162,77.3172715 L151.188956,77.3172715 L151.188956,65.7608885 Z" id="Fill-22" fill="#FFFFFF" mask="url(#mask-2)"></path>
                        <path d="M175.309994,71.5945406 L175.309994,71.5504242 C175.309994,69.0694047 173.353468,67.0358511 170.788295,67.0358511 C168.150085,67.0358511 166.335208,69.0694047 166.335208,71.5063079 L166.335208,71.5504242 C166.335208,74.0314437 168.267388,76.0439896 170.834774,76.0439896 C173.472985,76.0439896 175.309994,74.0314437 175.309994,71.5945406 M164.476066,71.5945406 L164.476066,71.5504242 C164.476066,68.2858143 167.158542,65.5148874 170.834774,65.5148874 C174.484446,65.5148874 177.169136,68.241698 177.169136,71.5063079 L177.169136,71.5504242 C177.169136,74.8129333 174.460101,77.5859611 170.788295,77.5859611 C167.138623,77.5859611 164.476066,74.8591505 164.476066,71.5945406" id="Fill-23" fill="#FFFFFF" mask="url(#mask-2)"></path>
                        <polygon id="Fill-24" fill="#FFFFFF" mask="url(#mask-2)" points="178.065729 65.7608885 180.068733 65.7608885 184.165485 75.348842 188.286583 65.7608885 190.240895 65.7608885 184.942341 77.4055042 183.342151 77.4055042"></polygon>
                        <path d="M200.068894,73.0705476 L200.068894,71.9970497 C199.174736,71.7512586 197.995066,71.5054676 196.514392,71.5054676 C194.252436,71.5054676 192.957677,72.4445156 192.957677,73.8310294 L192.957677,73.8751458 C192.957677,75.3288846 194.369739,76.1775991 196.018621,76.1775991 C198.256231,76.1775991 200.068894,74.9024265 200.068894,73.0705476 M191.120667,73.9633785 L191.120667,73.9192621 C191.120667,71.4382426 193.238761,70.1420623 196.326265,70.1420623 C197.879976,70.1420623 198.962262,70.343737 200.044548,70.6336444 L200.044548,70.2765121 C200.044548,68.2198499 198.727656,67.146352 196.441354,67.146352 C195.004946,67.146352 193.876181,67.4824766 192.74299,67.9740588 L192.202954,66.5665371 C193.546405,65.9846215 194.841164,65.5833728 196.629482,65.5833728 C198.351401,65.5833728 199.692639,66.0287378 200.564665,66.8564446 C201.410132,67.6610428 201.835079,68.778657 201.835079,70.2534035 L201.835079,77.3162211 L200.044548,77.3162211 L200.044548,75.5956834 C199.196868,76.6229642 197.809152,77.5620122 195.664499,77.5620122 C193.382623,77.5620122 191.120667,76.3330567 191.120667,73.9633785" id="Fill-25" fill="#FFFFFF" mask="url(#mask-2)"></path>
                        <path d="M205.727325,74.2543363 L205.727325,67.2818522 L204.029752,67.2818522 L204.029752,65.7608885 L205.727325,65.7608885 L205.727325,62.2735961 L207.537775,62.2735961 L207.537775,65.7608885 L211.399921,65.7608885 L211.399921,67.2818522 L207.537775,67.2818522 L207.537775,74.0316538 C207.537775,75.4391754 208.363323,75.9538662 209.589471,75.9538662 C210.200332,75.9538662 210.718236,75.8425249 211.355656,75.5526175 L211.355656,77.027364 C210.718236,77.3382793 210.034337,77.5189462 209.164524,77.5189462 C207.210212,77.5189462 205.727325,76.6030068 205.727325,74.2543363" id="Fill-26" fill="#FFFFFF" mask="url(#mask-2)"></path>
                        <path d="M214.30151,77.3168513 L216.114174,77.3168513 L216.114174,65.7604684 L214.30151,65.7604684 L214.30151,77.3168513 Z M214.181994,64.3109312 L216.255823,64.3109312 L216.255823,62.4118273 L214.181994,62.4118273 L214.181994,64.3109312 Z" id="Fill-27" fill="#FFFFFF" mask="url(#mask-2)"></path>
                        <path d="M229.939107,71.5945406 L229.939107,71.5504242 C229.939107,69.0694047 227.984794,67.0358511 225.417408,67.0358511 C222.78141,67.0358511 220.966534,69.0694047 220.966534,71.5063079 L220.966534,71.5504242 C220.966534,74.0314437 222.8965,76.0439896 225.4661,76.0439896 C228.102097,76.0439896 229.939107,74.0314437 229.939107,71.5945406 M219.105179,71.5945406 L219.105179,71.5504242 C219.105179,68.2858143 221.789868,65.5148874 225.4661,65.5148874 C229.115772,65.5148874 231.800462,68.241698 231.800462,71.5063079 L231.800462,71.5504242 C231.800462,74.8129333 229.091426,77.5859611 225.417408,77.5859611 C221.767736,77.5859611 219.105179,74.8591505 219.105179,71.5945406" id="Fill-28" fill="#FFFFFF" mask="url(#mask-2)"></path>
                        <path d="M234.605553,65.7608885 L236.418216,65.7608885 L236.418216,67.7734344 C237.221631,66.5213704 238.492044,65.5150975 240.588006,65.5150975 C243.531647,65.5150975 245.251353,67.3931935 245.251353,70.1410119 L245.251353,77.3172715 L243.436476,77.3172715 L243.436476,70.5674699 C243.436476,68.4204742 242.214755,67.0801775 240.070102,67.0801775 C237.971927,67.0801775 236.418216,68.5318155 236.418216,70.7019198 L236.418216,77.3172715 L234.605553,77.3172715 L234.605553,65.7608885 Z" id="Fill-29" fill="#FFFFFF" mask="url(#mask-2)"></path>
                        <polygon id="Fill-30" fill="#FFFFFF" mask="url(#mask-2)" points="131.237708 97.6439848 133.099064 97.6439848 133.099064 81.997386 131.237708 81.997386"></polygon>
                        <path d="M137.150665,86.0876019 L138.963328,86.0876019 L138.963328,88.1001477 C139.76453,86.8480837 141.037157,85.8418108 143.130904,85.8418108 C146.074546,85.8418108 147.796465,87.7199068 147.796465,90.4677252 L147.796465,97.6439848 L145.979375,97.6439848 L145.979375,90.8941832 C145.979375,88.7471875 144.757654,87.4068908 142.613001,87.4068908 C140.51704,87.4068908 138.963328,88.8585288 138.963328,91.0286331 L138.963328,97.6439848 L137.150665,97.6439848 L137.150665,86.0876019 Z" id="Fill-31" fill="#FFFFFF" mask="url(#mask-2)"></path>
                        <path d="M150.177495,96.1677677 L151.095999,94.9388122 C152.415105,95.8778603 153.873646,96.4156596 155.310054,96.4156596 C156.770809,96.4156596 157.830962,95.6992941 157.830962,94.5816799 L157.830962,94.5375635 C157.830962,93.3737322 156.394554,92.9283671 154.79215,92.5019091 C152.88653,91.9872183 150.766223,91.3632871 150.766223,89.2394 L150.766223,89.1931828 C150.766223,87.2037455 152.510275,85.8844566 154.911667,85.8844566 C156.394554,85.8844566 158.043435,86.3781395 159.289503,87.1596292 L158.466169,88.4579103 C157.335191,87.7646534 156.040431,87.3381954 154.862975,87.3381954 C153.42878,87.3381954 152.510275,88.0545608 152.510275,89.0146167 L152.510275,89.0608338 C152.510275,90.1553394 154.015295,90.5796967 155.642044,91.0481703 C157.523318,91.5859696 159.548455,92.2771258 159.548455,94.3568966 L159.548455,94.4031137 C159.548455,96.5942257 157.642835,97.8672976 155.214884,97.8672976 C153.473045,97.8672976 151.543079,97.218157 150.177495,96.1677677" id="Fill-32" fill="#FFFFFF" mask="url(#mask-2)"></path>
                        <path d="M162.849538,94.5810496 L162.849538,87.6085656 L161.151965,87.6085656 L161.151965,86.0876019 L162.849538,86.0876019 L162.849538,82.6003094 L164.662202,82.6003094 L164.662202,86.0876019 L168.524348,86.0876019 L168.524348,87.6085656 L164.662202,87.6085656 L164.662202,94.3583671 C164.662202,95.7658888 165.485536,96.2805795 166.711684,96.2805795 C167.322545,96.2805795 167.842662,96.1671375 168.477869,95.87723 L168.477869,97.3540774 C167.842662,97.6649926 167.158764,97.8456595 166.286738,97.8456595 C164.332425,97.8456595 162.849538,96.9276193 162.849538,94.5810496" id="Fill-33" fill="#FFFFFF" mask="url(#mask-2)"></path>
                        <path d="M171.423945,97.6439848 L173.236608,97.6439848 L173.236608,86.0876019 L171.423945,86.0876019 L171.423945,97.6439848 Z M171.306642,84.4994133 L173.38047,84.4994133 L173.38047,82.6003094 L171.306642,82.6003094 L171.306642,84.4994133 Z" id="Fill-34" fill="#FFFFFF" mask="url(#mask-2)"></path>
                        <path d="M177.618428,94.5810496 L177.618428,87.6085656 L175.923068,87.6085656 L175.923068,86.0876019 L177.618428,86.0876019 L177.618428,82.6003094 L179.431092,82.6003094 L179.431092,86.0876019 L183.293238,86.0876019 L183.293238,87.6085656 L179.431092,87.6085656 L179.431092,94.3583671 C179.431092,95.7658888 180.254426,96.2805795 181.480574,96.2805795 C182.091435,96.2805795 182.611552,96.1671375 183.246759,95.87723 L183.246759,97.3540774 C182.611552,97.6649926 181.927654,97.8456595 181.057841,97.8456595 C179.103529,97.8456595 177.618428,96.9276193 177.618428,94.5810496" id="Fill-35" fill="#FFFFFF" mask="url(#mask-2)"></path>
                        <path d="M185.840262,93.2617607 L185.840262,86.0876019 L187.652925,86.0876019 L187.652925,92.8374034 C187.652925,94.9843991 188.87686,96.3246959 191.021513,96.3246959 C193.093128,96.3246959 194.668972,94.8730579 194.668972,92.7029536 L194.668972,86.0876019 L196.461716,86.0876019 L196.461716,97.6439848 L194.668972,97.6439848 L194.668972,95.6314389 C193.845638,96.883503 192.599571,97.8897759 190.501396,97.8897759 C187.557755,97.8897759 185.840262,96.0116799 185.840262,93.2617607" id="Fill-36" fill="#FFFFFF" mask="url(#mask-2)"></path>
                        <path d="M200.704322,94.5810496 L200.704322,87.6085656 L199.008962,87.6085656 L199.008962,86.0876019 L200.704322,86.0876019 L200.704322,82.6003094 L202.516986,82.6003094 L202.516986,86.0876019 L206.379132,86.0876019 L206.379132,87.6085656 L202.516986,87.6085656 L202.516986,94.3583671 C202.516986,95.7658888 203.34032,96.2805795 204.566468,96.2805795 C205.177329,96.2805795 205.697446,96.1671375 206.332653,95.87723 L206.332653,97.3540774 C205.697446,97.6649926 205.013548,97.8456595 204.143735,97.8456595 C202.187209,97.8456595 200.704322,96.9276193 200.704322,94.5810496" id="Fill-37" fill="#FFFFFF" mask="url(#mask-2)"></path>
                        <path d="M217.688468,91.1847209 C217.475995,89.0818416 216.203368,87.294079 213.801977,87.294079 C211.708229,87.294079 210.103612,88.9494925 209.846874,91.1847209 L217.688468,91.1847209 Z M214.133966,96.4156596 C215.802767,96.4156596 216.982437,95.766519 217.971766,94.7833546 L219.100531,95.7434104 C217.876596,97.0395908 216.393709,97.9114139 214.085274,97.9114139 C210.741032,97.9114139 208.009865,95.4745108 208.009865,91.8779779 C208.009865,88.5230345 210.482081,85.842441 213.850668,85.842441 C217.453862,85.842441 219.525478,88.5692516 219.525478,91.9662106 C219.525478,92.1237689 219.525478,92.3023351 219.501132,92.569134 L209.846874,92.569134 C210.103612,95.0060371 211.989313,96.4156596 214.133966,96.4156596 Z" id="Fill-38" fill="#FFFFFF" mask="url(#mask-2)"></path>
                        <path d="M45.0928216,135.99958 L45.0928216,130.048074 C62.9937017,130.048074 78.4710576,123.953716 91.1021558,111.937262 C103.76424,99.9439172 110.184919,85.2510718 110.184919,68.2620755 C110.184919,51.3045909 103.76424,36.6096447 91.1043691,24.5910905 C78.4400719,12.5725363 62.9582894,6.47817766 45.0928216,6.47817766 L45.0928216,0.524571187 C64.6824222,0.524571187 81.6559446,7.20504705 95.5353238,20.3811303 C109.414703,33.5572135 116.452883,49.6680844 116.452883,68.2620755 C116.452883,86.8896791 109.414703,103.00055 95.5331106,116.147222 C81.6913568,129.317003 64.7178344,135.99958 45.0928216,135.99958" id="Fill-39" fill="#FFFFFF" mask="url(#mask-2)"></path>
                    </g>
                </g>
            </g>
        </g>
    </g>
</svg>